<svg width="20" height="20" viewBox="0 0 20 20" fill="none" xmlns="http://www.w3.org/2000/svg">
<path d="M10.0003 1.66699C5.40033 1.66699 1.66699 5.40033 1.66699 10.0003C1.66699 14.6003 5.40033 18.3337 10.0003 18.3337C14.6003 18.3337 18.3337 14.6003 18.3337 10.0003C18.3337 5.40033 14.6003 1.66699 10.0003 1.66699ZM3.33366 10.0003C3.33366 6.31699 6.31699 3.33366 10.0003 3.33366C11.542 3.33366 12.9587 3.85866 14.0837 4.74199L4.74199 14.0837C3.8268 12.9196 3.33065 11.4811 3.33366 10.0003ZM10.0003 16.667C8.45866 16.667 7.04199 16.142 5.91699 15.2587L15.2587 5.91699C16.1739 7.08105 16.67 8.51958 16.667 10.0003C16.667 13.6837 13.6837 16.667 10.0003 16.667Z" fill="white"/>
</svg>
