<svg width="28" height="28" viewBox="0 0 28 28" fill="none" xmlns="http://www.w3.org/2000/svg">
<path d="M14 17.7342C16.0619 17.7342 17.7333 16.0628 17.7333 14.0009C17.7333 11.939 16.0619 10.2676 14 10.2676C11.9381 10.2676 10.2667 11.939 10.2667 14.0009C10.2667 16.0628 11.9381 17.7342 14 17.7342Z" fill="#636363"/>
<path d="M10.5 2.33398L8.365 4.66732H4.66667C3.38334 4.66732 2.33334 5.71732 2.33334 7.00065V21.0007C2.33334 22.284 3.38334 23.334 4.66667 23.334H23.3333C24.6167 23.334 25.6667 22.284 25.6667 21.0007V7.00065C25.6667 5.71732 24.6167 4.66732 23.3333 4.66732H19.635L17.5 2.33398H10.5ZM14 19.834C10.78 19.834 8.16667 17.2207 8.16667 14.0007C8.16667 10.7807 10.78 8.16732 14 8.16732C17.22 8.16732 19.8333 10.7807 19.8333 14.0007C19.8333 17.2207 17.22 19.834 14 19.834Z" fill="#636363"/>
</svg>
