<svg width="20" height="20" viewBox="0 0 20 20" fill="none" xmlns="http://www.w3.org/2000/svg">
<path d="M4.50065 14.8333C4.50065 15.6618 5.17222 16.3333 6.00065 16.3333H8.61775C8.70437 16.3333 8.82844 16.4092 8.86826 16.5681C8.89511 16.6753 8.87116 16.7918 8.8106 16.8795C8.75252 16.9636 8.67816 17 8.60311 17H4.33398C4.05784 17 3.83398 16.7761 3.83398 16.5V8C3.83398 7.84262 3.90808 7.69443 4.03398 7.6L9.70065 3.35C9.87843 3.21667 10.1229 3.21667 10.3007 3.35L15.9673 7.6C16.0932 7.69443 16.1673 7.84262 16.1673 8V8.4386C16.1673 8.50862 16.1356 8.5778 16.0634 8.63475C15.9881 8.69416 15.8837 8.72616 15.7798 8.71351C15.7207 8.70632 15.6614 8.69995 15.6018 8.6944C15.5685 8.69131 15.5402 8.6763 15.522 8.65753C15.5051 8.64018 15.5007 8.62451 15.5007 8.61111C15.5007 8.27887 15.3442 7.96601 15.0784 7.76667L10.9007 4.63333C10.3673 4.23333 9.63398 4.23333 9.10065 4.63333L5.10065 7.63333C4.72294 7.91661 4.50065 8.3612 4.50065 8.83333V14.8333Z" fill="white" stroke="white"/>
<path d="M15.0007 10.833C12.7007 10.833 10.834 12.6997 10.834 14.9997C10.834 17.2997 12.7007 19.1663 15.0007 19.1663C17.3007 19.1663 19.1673 17.2997 19.1673 14.9997C19.1673 12.6997 17.3007 10.833 15.0007 10.833ZM17.5007 15.1163C17.5007 15.282 17.3663 15.4163 17.2007 15.4163H15.7173C15.5516 15.4163 15.4173 15.5507 15.4173 15.7163V17.1997C15.4173 17.3654 15.283 17.4997 15.1173 17.4997H14.884C14.7183 17.4997 14.584 17.3654 14.584 17.1997V15.7163C14.584 15.5507 14.4497 15.4163 14.284 15.4163H12.8007C12.635 15.4163 12.5007 15.282 12.5007 15.1163V14.883C12.5007 14.7173 12.635 14.583 12.8007 14.583H14.284C14.4497 14.583 14.584 14.4487 14.584 14.283V12.7997C14.584 12.634 14.7183 12.4997 14.884 12.4997H15.1173C15.283 12.4997 15.4173 12.634 15.4173 12.7997V14.283C15.4173 14.4487 15.5516 14.583 15.7173 14.583H17.2007C17.3663 14.583 17.5007 14.7173 17.5007 14.883V15.1163Z" fill="white"/>
</svg>
