<svg width="36" height="36" viewBox="0 0 36 36" fill="none" xmlns="http://www.w3.org/2000/svg">
<g filter="url(#filter0_d_686_3424)">
<path d="M32 22.6667C32 23.4918 31.6722 24.2831 31.0888 24.8666C30.5053 25.45 29.714 25.7778 28.8889 25.7778H10.2222L4 32V7.11111C4 6.28599 4.32778 5.49467 4.91122 4.91122C5.49467 4.32778 6.28599 4 7.11111 4H28.8889C29.714 4 30.5053 4.32778 31.0888 4.91122C31.6722 5.49467 32 6.28599 32 7.11111V22.6667Z" stroke="#FF12B3" stroke-width="1.4359" stroke-linecap="round" stroke-linejoin="round" shape-rendering="crispEdges"/>
</g>
<g filter="url(#filter1_d_686_3424)">
<path d="M13.0445 12.3191V18.4609H11.9297V13.619L10.4531 14.107V13.2067L12.9183 12.3191H13.0445ZM19.1695 16.7867C19.1695 17.1681 19.0797 17.4906 18.9002 17.7542C18.7236 18.015 18.481 18.2127 18.1725 18.3474C17.8668 18.4792 17.519 18.5451 17.1292 18.5451C16.7422 18.5451 16.393 18.4792 16.0817 18.3474C15.7732 18.2127 15.5278 18.015 15.3456 17.7542C15.1661 17.4906 15.0763 17.1681 15.0763 16.7867C15.0763 16.5315 15.1268 16.3001 15.2278 16.0925C15.3315 15.885 15.4746 15.7069 15.6569 15.5583C15.8391 15.4069 16.0551 15.2919 16.3047 15.2133C16.5543 15.132 16.8263 15.0913 17.1208 15.0913C17.5134 15.0913 17.864 15.1629 18.1725 15.3059C18.4838 15.4461 18.7278 15.6438 18.9044 15.899C19.0811 16.1514 19.1695 16.4473 19.1695 16.7867ZM18.0505 16.7194C18.0505 16.523 18.0112 16.3534 17.9327 16.2103C17.857 16.0645 17.749 15.9523 17.6088 15.8738C17.4686 15.7953 17.3059 15.756 17.1208 15.756C16.9329 15.756 16.7688 15.7953 16.6286 15.8738C16.4912 15.9523 16.3832 16.0645 16.3047 16.2103C16.229 16.3534 16.1911 16.523 16.1911 16.7194C16.1911 16.9185 16.229 17.0895 16.3047 17.2326C16.3832 17.3728 16.4926 17.4808 16.6328 17.5565C16.773 17.6322 16.9385 17.6701 17.1292 17.6701C17.3199 17.6701 17.484 17.6322 17.6214 17.5565C17.7588 17.4808 17.864 17.3728 17.9369 17.2326C18.0126 17.0895 18.0505 16.9185 18.0505 16.7194ZM19.0349 13.9513C19.0349 14.2598 18.9535 14.5347 18.7909 14.7758C18.6282 15.0142 18.4024 15.2007 18.1136 15.3353C17.8275 15.47 17.4994 15.5373 17.1292 15.5373C16.759 15.5373 16.4281 15.47 16.1364 15.3353C15.8476 15.2007 15.6204 15.0142 15.4549 14.7758C15.2923 14.5347 15.2109 14.2598 15.2109 13.9513C15.2109 13.5867 15.2937 13.2782 15.4591 13.0258C15.6246 12.7706 15.8504 12.5771 16.1364 12.4453C16.4253 12.3135 16.7534 12.2476 17.1208 12.2476C17.4938 12.2476 17.8247 12.3135 18.1136 12.4453C18.4024 12.5771 18.6282 12.7706 18.7909 13.0258C18.9535 13.2782 19.0349 13.5867 19.0349 13.9513ZM17.9243 13.9976C17.9243 13.8237 17.892 13.6723 17.8275 13.5433C17.763 13.4115 17.6705 13.3091 17.5499 13.2362C17.4321 13.1633 17.2891 13.1268 17.1208 13.1268C16.9581 13.1268 16.8179 13.1619 16.7001 13.232C16.5823 13.3021 16.4912 13.403 16.4267 13.5349C16.3622 13.6639 16.3299 13.8181 16.3299 13.9976C16.3299 14.1743 16.3622 14.3285 16.4267 14.4603C16.4912 14.5921 16.5823 14.6959 16.7001 14.7716C16.8207 14.8446 16.9637 14.881 17.1292 14.881C17.2947 14.881 17.4363 14.8446 17.5541 14.7716C17.6719 14.6959 17.763 14.5921 17.8275 14.4603C17.892 14.3285 17.9243 14.1743 17.9243 13.9976ZM26.1863 15.0745V16.0631H21.988V15.0745H26.1863ZM24.6214 13.3876V17.8468H23.5571V13.3876H24.6214Z" fill="#FF12B3"/>
</g>
<defs>
<filter id="filter0_d_686_3424" x="0.410432" y="0.409455" width="35.1791" height="35.1811" filterUnits="userSpaceOnUse" color-interpolation-filters="sRGB">
<feFlood flood-opacity="0" result="BackgroundImageFix"/>
<feColorMatrix in="SourceAlpha" type="matrix" values="0 0 0 0 0 0 0 0 0 0 0 0 0 0 0 0 0 0 127 0" result="hardAlpha"/>
<feOffset/>
<feGaussianBlur stdDeviation="1.4359"/>
<feComposite in2="hardAlpha" operator="out"/>
<feColorMatrix type="matrix" values="0 0 0 0 1 0 0 0 0 0.0708333 0 0 0 0 0.701749 0 0 0 1 0"/>
<feBlend mode="normal" in2="BackgroundImageFix" result="effect1_dropShadow_686_3424"/>
<feBlend mode="normal" in="SourceGraphic" in2="effect1_dropShadow_686_3424" result="shape"/>
</filter>
<filter id="filter1_d_686_3424" x="7.58133" y="9.37625" width="21.477" height="12.0405" filterUnits="userSpaceOnUse" color-interpolation-filters="sRGB">
<feFlood flood-opacity="0" result="BackgroundImageFix"/>
<feColorMatrix in="SourceAlpha" type="matrix" values="0 0 0 0 0 0 0 0 0 0 0 0 0 0 0 0 0 0 127 0" result="hardAlpha"/>
<feOffset/>
<feGaussianBlur stdDeviation="1.4359"/>
<feComposite in2="hardAlpha" operator="out"/>
<feColorMatrix type="matrix" values="0 0 0 0 1 0 0 0 0 0.0708333 0 0 0 0 0.701749 0 0 0 0.8 0"/>
<feBlend mode="normal" in2="BackgroundImageFix" result="effect1_dropShadow_686_3424"/>
<feBlend mode="normal" in="SourceGraphic" in2="effect1_dropShadow_686_3424" result="shape"/>
</filter>
</defs>
</svg>
