<svg width="300" height="23" viewBox="0 0 300 23" fill="none" xmlns="http://www.w3.org/2000/svg">
<path d="M0 8C0 3.58172 3.58172 0 8 0H292C296.418 0 300 3.58172 300 8V23H0V8Z" fill="#161611"/>
<path d="M16.749 15H15.2646L15.2744 14.2334H16.749C17.2568 14.2334 17.68 14.1276 18.0186 13.916C18.3571 13.7012 18.611 13.4017 18.7803 13.0176C18.9528 12.6302 19.0391 12.1777 19.0391 11.6602V11.2256C19.0391 10.8187 18.9902 10.4574 18.8926 10.1416C18.7949 9.82259 18.6517 9.55404 18.4629 9.33594C18.2741 9.11458 18.043 8.94694 17.7695 8.83301C17.4993 8.71908 17.1885 8.66211 16.8369 8.66211H15.2354V7.89062H16.8369C17.3024 7.89062 17.7272 7.96875 18.1113 8.125C18.4954 8.27799 18.8258 8.50098 19.1025 8.79395C19.3825 9.08366 19.5973 9.43522 19.7471 9.84863C19.8968 10.2588 19.9717 10.721 19.9717 11.2354V11.6602C19.9717 12.1745 19.8968 12.6383 19.7471 13.0518C19.5973 13.4619 19.3809 13.8118 19.0977 14.1016C18.8177 14.3913 18.4792 14.6143 18.082 14.7705C17.6882 14.9235 17.2438 15 16.749 15ZM15.7676 7.89062V15H14.8252V7.89062H15.7676ZM22.3984 7.89062V15H21.4561V7.89062H22.3984ZM27.9014 13.2031C27.9014 13.0371 27.8753 12.8906 27.8232 12.7637C27.7744 12.6335 27.6865 12.5163 27.5596 12.4121C27.4359 12.3079 27.2633 12.2087 27.042 12.1143C26.8239 12.0199 26.5472 11.9238 26.2119 11.8262C25.8604 11.722 25.543 11.6064 25.2598 11.4795C24.9766 11.3493 24.734 11.2012 24.5322 11.0352C24.3304 10.8691 24.1758 10.6787 24.0684 10.4639C23.9609 10.249 23.9072 10.0033 23.9072 9.72656C23.9072 9.44987 23.9642 9.19434 24.0781 8.95996C24.1921 8.72559 24.3548 8.52214 24.5664 8.34961C24.7812 8.17383 25.0368 8.03711 25.333 7.93945C25.6292 7.8418 25.9596 7.79297 26.3242 7.79297C26.8581 7.79297 27.3105 7.89551 27.6816 8.10059C28.056 8.30241 28.3408 8.56771 28.5361 8.89648C28.7314 9.22201 28.8291 9.57031 28.8291 9.94141H27.8916C27.8916 9.67448 27.8346 9.43848 27.7207 9.2334C27.6068 9.02507 27.4342 8.8623 27.2031 8.74512C26.972 8.62467 26.679 8.56445 26.3242 8.56445C25.9889 8.56445 25.7122 8.61491 25.4941 8.71582C25.276 8.81673 25.1133 8.95345 25.0059 9.12598C24.9017 9.2985 24.8496 9.49544 24.8496 9.7168C24.8496 9.86654 24.8805 10.0033 24.9424 10.127C25.0075 10.2474 25.1068 10.3597 25.2402 10.4639C25.377 10.568 25.5495 10.6641 25.7578 10.752C25.9694 10.8398 26.2217 10.9245 26.5146 11.0059C26.9183 11.1198 27.2666 11.2467 27.5596 11.3867C27.8525 11.5267 28.0934 11.6846 28.2822 11.8604C28.4743 12.0329 28.6159 12.2298 28.707 12.4512C28.8014 12.6693 28.8486 12.9167 28.8486 13.1934C28.8486 13.4831 28.79 13.7451 28.6729 13.9795C28.5557 14.2139 28.388 14.4141 28.1699 14.5801C27.9518 14.7461 27.6898 14.8747 27.3838 14.9658C27.0811 15.0537 26.7425 15.0977 26.3682 15.0977C26.0394 15.0977 25.7155 15.0521 25.3965 14.9609C25.0807 14.8698 24.7926 14.7331 24.5322 14.5508C24.2751 14.3685 24.0684 14.1439 23.9121 13.877C23.7591 13.6068 23.6826 13.2943 23.6826 12.9395H24.6201C24.6201 13.1836 24.6673 13.3936 24.7617 13.5693C24.8561 13.7419 24.9847 13.8851 25.1475 13.999C25.3135 14.113 25.5007 14.1976 25.709 14.2529C25.9206 14.305 26.1403 14.3311 26.3682 14.3311C26.6969 14.3311 26.9753 14.2855 27.2031 14.1943C27.431 14.1032 27.6035 13.973 27.7207 13.8037C27.8411 13.6344 27.9014 13.4342 27.9014 13.2031ZM34.3418 12.7393H35.2793C35.2305 13.1885 35.1019 13.5905 34.8936 13.9453C34.6852 14.3001 34.3906 14.5817 34.0098 14.79C33.6289 14.9951 33.1536 15.0977 32.584 15.0977C32.1673 15.0977 31.7881 15.0195 31.4463 14.8633C31.1077 14.707 30.8164 14.4857 30.5723 14.1992C30.3281 13.9095 30.1393 13.5628 30.0059 13.1592C29.8757 12.7523 29.8105 12.2998 29.8105 11.8018V11.0938C29.8105 10.5957 29.8757 10.1449 30.0059 9.74121C30.1393 9.33431 30.3298 8.986 30.5771 8.69629C30.8278 8.40658 31.1289 8.18359 31.4805 8.02734C31.832 7.87109 32.2275 7.79297 32.667 7.79297C33.2041 7.79297 33.6582 7.89388 34.0293 8.0957C34.4004 8.29753 34.6885 8.57747 34.8936 8.93555C35.1019 9.29036 35.2305 9.70215 35.2793 10.1709H34.3418C34.2962 9.83887 34.2116 9.55404 34.0879 9.31641C33.9642 9.07552 33.7884 8.88997 33.5605 8.75977C33.3327 8.62956 33.0348 8.56445 32.667 8.56445C32.3512 8.56445 32.0729 8.62467 31.832 8.74512C31.5944 8.86556 31.3942 9.03646 31.2314 9.25781C31.0719 9.47917 30.9515 9.74447 30.8701 10.0537C30.7887 10.363 30.748 10.7064 30.748 11.084V11.8018C30.748 12.1501 30.7839 12.4772 30.8555 12.7832C30.9303 13.0892 31.0426 13.3577 31.1924 13.5889C31.3421 13.82 31.5326 14.0023 31.7637 14.1357C31.9948 14.266 32.2682 14.3311 32.584 14.3311C32.9844 14.3311 33.3034 14.2676 33.541 14.1406C33.7786 14.0137 33.9577 13.8314 34.0781 13.5938C34.2018 13.3561 34.2897 13.0713 34.3418 12.7393ZM40.875 14.2334V15H37.3203V14.2334H40.875ZM37.5059 7.89062V15H36.5635V7.89062H37.5059ZM44.6836 8.52051L42.3301 15H41.3682L44.0781 7.89062H44.6982L44.6836 8.52051ZM46.6562 15L44.2979 8.52051L44.2832 7.89062H44.9033L47.623 15H46.6562ZM46.5342 12.3682V13.1396H42.54V12.3682H46.5342ZM49.5859 7.89062V15H48.6436V7.89062H49.5859ZM51.5977 7.89062H52.5107L54.8398 13.6865L57.1641 7.89062H58.082L55.1914 15H54.4785L51.5977 7.89062ZM51.2998 7.89062H52.1055L52.2373 12.2266V15H51.2998V7.89062ZM57.5693 7.89062H58.375V15H57.4375V12.2266L57.5693 7.89062ZM64.5469 14.2334V15H60.7822V14.2334H64.5469ZM60.9727 7.89062V15H60.0303V7.89062H60.9727ZM64.0488 10.9473V11.7139H60.7822V10.9473H64.0488ZM64.498 7.89062V8.66211H60.7822V7.89062H64.498ZM65.7139 7.89062H68.0674C68.6012 7.89062 69.0521 7.97201 69.4199 8.13477C69.791 8.29753 70.0726 8.53841 70.2646 8.85742C70.46 9.17318 70.5576 9.56217 70.5576 10.0244C70.5576 10.3499 70.4909 10.6478 70.3574 10.918C70.2272 11.1849 70.0384 11.4128 69.791 11.6016C69.5469 11.7871 69.2539 11.9255 68.9121 12.0166L68.6484 12.1191H66.4365L66.4268 11.3525H68.0967C68.4352 11.3525 68.7168 11.2939 68.9414 11.1768C69.166 11.0563 69.3353 10.8952 69.4492 10.6934C69.5632 10.4915 69.6201 10.2686 69.6201 10.0244C69.6201 9.75098 69.5664 9.51172 69.459 9.30664C69.3516 9.10156 69.1823 8.94368 68.9512 8.83301C68.7233 8.71908 68.4287 8.66211 68.0674 8.66211H66.6562V15H65.7139V7.89062ZM69.8691 15L68.1406 11.7773L69.1221 11.7725L70.875 14.9414V15H69.8691ZM73.6191 11.6064V12.3486H71.2363V11.6064H73.6191ZM79.5518 7.89062V15H78.624V7.89062H79.5518ZM81.8369 7.89062V8.66211H76.3438V7.89062H81.8369ZM83.6582 7.5V15H82.7549V7.5H83.6582ZM83.4434 12.1582L83.0674 12.1436C83.0706 11.7822 83.1243 11.4486 83.2285 11.1426C83.3327 10.8333 83.4792 10.5648 83.668 10.3369C83.8568 10.109 84.0814 9.93327 84.3418 9.80957C84.6055 9.68262 84.8968 9.61914 85.2158 9.61914C85.4762 9.61914 85.7106 9.65495 85.9189 9.72656C86.1273 9.79492 86.3047 9.9056 86.4512 10.0586C86.6009 10.2116 86.7148 10.4102 86.793 10.6543C86.8711 10.8952 86.9102 11.1898 86.9102 11.5381V15H86.002V11.5283C86.002 11.2516 85.9613 11.0303 85.8799 10.8643C85.7985 10.695 85.6797 10.5729 85.5234 10.498C85.3672 10.4199 85.1751 10.3809 84.9473 10.3809C84.7227 10.3809 84.5176 10.4281 84.332 10.5225C84.1497 10.6169 83.9919 10.7471 83.8584 10.9131C83.7282 11.0791 83.6257 11.2695 83.5508 11.4844C83.4792 11.696 83.4434 11.9206 83.4434 12.1582ZM89.2441 9.7168V15H88.3359V9.7168H89.2441ZM88.2676 8.31543C88.2676 8.16895 88.3115 8.04525 88.3994 7.94434C88.4906 7.84342 88.624 7.79297 88.7998 7.79297C88.9723 7.79297 89.1042 7.84342 89.1953 7.94434C89.2897 8.04525 89.3369 8.16895 89.3369 8.31543C89.3369 8.4554 89.2897 8.57585 89.1953 8.67676C89.1042 8.77441 88.9723 8.82324 88.7998 8.82324C88.624 8.82324 88.4906 8.77441 88.3994 8.67676C88.3115 8.57585 88.2676 8.4554 88.2676 8.31543ZM93.7705 13.5986C93.7705 13.4684 93.7412 13.348 93.6826 13.2373C93.6273 13.1234 93.5117 13.0208 93.3359 12.9297C93.1634 12.8353 92.903 12.7539 92.5547 12.6855C92.2617 12.6237 91.9964 12.5505 91.7588 12.4658C91.5244 12.3812 91.3242 12.2786 91.1582 12.1582C90.9954 12.0378 90.8701 11.8962 90.7822 11.7334C90.6943 11.5706 90.6504 11.3802 90.6504 11.1621C90.6504 10.9538 90.696 10.7568 90.7871 10.5713C90.8815 10.3857 91.0133 10.2214 91.1826 10.0781C91.3551 9.9349 91.5618 9.82259 91.8027 9.74121C92.0436 9.65983 92.3122 9.61914 92.6084 9.61914C93.0316 9.61914 93.3929 9.69401 93.6924 9.84375C93.9919 9.99349 94.2214 10.1937 94.3809 10.4443C94.5404 10.6917 94.6201 10.9668 94.6201 11.2695H93.7168C93.7168 11.123 93.6729 10.9814 93.585 10.8447C93.5003 10.7048 93.375 10.5892 93.209 10.498C93.0462 10.4069 92.846 10.3613 92.6084 10.3613C92.3577 10.3613 92.1543 10.4004 91.998 10.4785C91.8451 10.5534 91.7327 10.6494 91.6611 10.7666C91.5928 10.8838 91.5586 11.0075 91.5586 11.1377C91.5586 11.2354 91.5749 11.3232 91.6074 11.4014C91.6432 11.4762 91.7051 11.5462 91.793 11.6113C91.8809 11.6732 92.0046 11.7318 92.1641 11.7871C92.3236 11.8424 92.527 11.8978 92.7744 11.9531C93.2074 12.0508 93.5638 12.168 93.8438 12.3047C94.1237 12.4414 94.332 12.609 94.4688 12.8076C94.6055 13.0062 94.6738 13.2471 94.6738 13.5303C94.6738 13.7614 94.625 13.973 94.5273 14.165C94.4329 14.3571 94.2946 14.5231 94.1123 14.6631C93.9333 14.7998 93.7184 14.9072 93.4678 14.9854C93.2204 15.0602 92.9421 15.0977 92.6328 15.0977C92.1673 15.0977 91.7734 15.0146 91.4512 14.8486C91.1289 14.6826 90.8848 14.4678 90.7188 14.2041C90.5527 13.9404 90.4697 13.6621 90.4697 13.3691H91.3779C91.391 13.6165 91.4626 13.8135 91.5928 13.96C91.723 14.1032 91.8825 14.2057 92.0713 14.2676C92.2601 14.3262 92.4473 14.3555 92.6328 14.3555C92.8802 14.3555 93.0869 14.3229 93.2529 14.2578C93.4222 14.1927 93.5508 14.1032 93.6387 13.9893C93.7266 13.8753 93.7705 13.7451 93.7705 13.5986ZM101.764 9.7168H102.584V14.8877C102.584 15.3532 102.49 15.7503 102.301 16.0791C102.112 16.4079 101.848 16.6569 101.51 16.8262C101.174 16.9987 100.787 17.085 100.348 17.085C100.165 17.085 99.9505 17.0557 99.7031 16.9971C99.459 16.9417 99.2181 16.8457 98.9805 16.709C98.7461 16.5755 98.5492 16.3949 98.3896 16.167L98.8633 15.6299C99.0846 15.8968 99.3158 16.0824 99.5566 16.1865C99.8008 16.2907 100.042 16.3428 100.279 16.3428C100.566 16.3428 100.813 16.2891 101.021 16.1816C101.23 16.0742 101.391 15.9147 101.505 15.7031C101.622 15.4948 101.681 15.2376 101.681 14.9316V10.8789L101.764 9.7168ZM98.126 12.417V12.3145C98.126 11.9108 98.1732 11.5446 98.2676 11.2158C98.3652 10.8838 98.5036 10.599 98.6826 10.3613C98.8649 10.1237 99.0846 9.94141 99.3418 9.81445C99.599 9.68424 99.8887 9.61914 100.211 9.61914C100.543 9.61914 100.833 9.67773 101.08 9.79492C101.331 9.90885 101.542 10.0765 101.715 10.2979C101.891 10.516 102.029 10.7796 102.13 11.0889C102.231 11.3981 102.301 11.748 102.34 12.1387V12.5879C102.304 12.9753 102.234 13.3236 102.13 13.6328C102.029 13.9421 101.891 14.2057 101.715 14.4238C101.542 14.6419 101.331 14.8096 101.08 14.9268C100.829 15.0407 100.536 15.0977 100.201 15.0977C99.8854 15.0977 99.599 15.0309 99.3418 14.8975C99.0879 14.764 98.8698 14.5768 98.6875 14.3359C98.5052 14.0951 98.3652 13.8118 98.2676 13.4863C98.1732 13.1576 98.126 12.8011 98.126 12.417ZM99.0293 12.3145V12.417C99.0293 12.6807 99.0553 12.9281 99.1074 13.1592C99.1628 13.3903 99.2458 13.5938 99.3564 13.7695C99.4704 13.9453 99.6152 14.0837 99.791 14.1846C99.9668 14.2822 100.177 14.3311 100.421 14.3311C100.72 14.3311 100.968 14.2676 101.163 14.1406C101.358 14.0137 101.513 13.846 101.627 13.6377C101.744 13.4294 101.835 13.2031 101.9 12.959V11.7822C101.865 11.6032 101.809 11.4307 101.734 11.2646C101.663 11.0954 101.568 10.9456 101.451 10.8154C101.337 10.682 101.196 10.5762 101.026 10.498C100.857 10.4199 100.659 10.3809 100.431 10.3809C100.183 10.3809 99.9701 10.4329 99.791 10.5371C99.6152 10.638 99.4704 10.778 99.3564 10.957C99.2458 11.1328 99.1628 11.3379 99.1074 11.5723C99.0553 11.8034 99.0293 12.0508 99.0293 12.3145ZM107.071 14.0967V11.377C107.071 11.1686 107.029 10.988 106.944 10.835C106.863 10.6787 106.739 10.5583 106.573 10.4736C106.407 10.389 106.202 10.3467 105.958 10.3467C105.73 10.3467 105.53 10.3857 105.357 10.4639C105.188 10.542 105.055 10.6445 104.957 10.7715C104.863 10.8984 104.815 11.0352 104.815 11.1816H103.912C103.912 10.9928 103.961 10.8057 104.059 10.6201C104.156 10.4346 104.296 10.2669 104.479 10.1172C104.664 9.96419 104.885 9.84375 105.143 9.75586C105.403 9.66471 105.693 9.61914 106.012 9.61914C106.396 9.61914 106.734 9.68424 107.027 9.81445C107.324 9.94466 107.555 10.1416 107.721 10.4053C107.89 10.6657 107.975 10.9928 107.975 11.3867V13.8477C107.975 14.0234 107.989 14.2106 108.019 14.4092C108.051 14.6077 108.098 14.7786 108.16 14.9219V15H107.218C107.172 14.8958 107.136 14.7575 107.11 14.585C107.084 14.4092 107.071 14.2464 107.071 14.0967ZM107.228 11.7969L107.237 12.4316H106.324C106.067 12.4316 105.838 12.4528 105.636 12.4951C105.434 12.5342 105.265 12.5944 105.128 12.6758C104.991 12.7572 104.887 12.8597 104.815 12.9834C104.744 13.1038 104.708 13.2454 104.708 13.4082C104.708 13.5742 104.745 13.7256 104.82 13.8623C104.895 13.999 105.007 14.1081 105.157 14.1895C105.31 14.2676 105.497 14.3066 105.719 14.3066C105.995 14.3066 106.24 14.248 106.451 14.1309C106.663 14.0137 106.83 13.8704 106.954 13.7012C107.081 13.5319 107.149 13.3675 107.159 13.208L107.545 13.6426C107.522 13.7793 107.46 13.9307 107.359 14.0967C107.258 14.2627 107.123 14.4222 106.954 14.5752C106.788 14.7249 106.59 14.8503 106.358 14.9512C106.131 15.0488 105.873 15.0977 105.587 15.0977C105.229 15.0977 104.915 15.0277 104.645 14.8877C104.378 14.7477 104.169 14.5605 104.02 14.3262C103.873 14.0885 103.8 13.8232 103.8 13.5303C103.8 13.2471 103.855 12.998 103.966 12.7832C104.076 12.5651 104.236 12.3844 104.444 12.2412C104.653 12.0947 104.903 11.984 105.196 11.9092C105.489 11.8343 105.816 11.7969 106.178 11.7969H107.228ZM110.294 10.7666V15H109.386V9.7168H110.245L110.294 10.7666ZM110.108 12.1582L109.688 12.1436C109.692 11.7822 109.739 11.4486 109.83 11.1426C109.921 10.8333 110.056 10.5648 110.235 10.3369C110.414 10.109 110.637 9.93327 110.904 9.80957C111.171 9.68262 111.48 9.61914 111.832 9.61914C112.079 9.61914 112.307 9.65495 112.516 9.72656C112.724 9.79492 112.905 9.90397 113.058 10.0537C113.211 10.2035 113.329 10.3955 113.414 10.6299C113.499 10.8643 113.541 11.1475 113.541 11.4795V15H112.638V11.5234C112.638 11.2467 112.59 11.0254 112.496 10.8594C112.405 10.6934 112.275 10.5729 112.105 10.498C111.936 10.4199 111.738 10.3809 111.51 10.3809C111.243 10.3809 111.02 10.4281 110.841 10.5225C110.662 10.6169 110.519 10.7471 110.411 10.9131C110.304 11.0791 110.226 11.2695 110.177 11.4844C110.131 11.696 110.108 11.9206 110.108 12.1582ZM113.531 11.6602L112.926 11.8457C112.929 11.556 112.976 11.2777 113.067 11.0107C113.162 10.7438 113.297 10.5062 113.473 10.2979C113.652 10.0895 113.871 9.92513 114.132 9.80469C114.392 9.68099 114.69 9.61914 115.025 9.61914C115.309 9.61914 115.559 9.65658 115.777 9.73145C115.999 9.80632 116.184 9.92188 116.334 10.0781C116.487 10.2311 116.603 10.4281 116.681 10.6689C116.759 10.9098 116.798 11.1963 116.798 11.5283V15H115.89V11.5186C115.89 11.2223 115.842 10.9928 115.748 10.8301C115.657 10.6641 115.527 10.5485 115.357 10.4834C115.191 10.415 114.993 10.3809 114.762 10.3809C114.563 10.3809 114.387 10.415 114.234 10.4834C114.081 10.5518 113.953 10.6462 113.849 10.7666C113.744 10.8838 113.665 11.0189 113.609 11.1719C113.557 11.3249 113.531 11.4876 113.531 11.6602ZM120.357 15.0977C119.99 15.0977 119.656 15.0358 119.356 14.9121C119.06 14.7852 118.805 14.6077 118.59 14.3799C118.378 14.152 118.215 13.8818 118.102 13.5693C117.988 13.2568 117.931 12.915 117.931 12.5439V12.3389C117.931 11.9092 117.994 11.5267 118.121 11.1914C118.248 10.8529 118.421 10.5664 118.639 10.332C118.857 10.0977 119.104 9.92025 119.381 9.7998C119.658 9.67936 119.944 9.61914 120.24 9.61914C120.618 9.61914 120.943 9.68424 121.217 9.81445C121.493 9.94466 121.72 10.127 121.896 10.3613C122.071 10.5924 122.201 10.8659 122.286 11.1816C122.371 11.4941 122.413 11.8359 122.413 12.207V12.6123H118.468V11.875H121.51V11.8066C121.497 11.5723 121.448 11.3444 121.363 11.123C121.282 10.9017 121.152 10.7194 120.973 10.5762C120.794 10.4329 120.549 10.3613 120.24 10.3613C120.035 10.3613 119.846 10.4053 119.674 10.4932C119.501 10.5778 119.353 10.7048 119.229 10.874C119.106 11.0433 119.01 11.25 118.941 11.4941C118.873 11.7383 118.839 12.0199 118.839 12.3389V12.5439C118.839 12.7946 118.873 13.0306 118.941 13.252C119.013 13.4701 119.116 13.6621 119.249 13.8281C119.386 13.9941 119.55 14.1243 119.742 14.2188C119.938 14.3132 120.159 14.3604 120.406 14.3604C120.725 14.3604 120.995 14.2952 121.217 14.165C121.438 14.0348 121.632 13.8607 121.798 13.6426L122.345 14.0771C122.231 14.2497 122.086 14.4141 121.91 14.5703C121.734 14.7266 121.518 14.8535 121.261 14.9512C121.007 15.0488 120.706 15.0977 120.357 15.0977ZM128.062 14.3555C128.277 14.3555 128.476 14.3115 128.658 14.2236C128.84 14.1357 128.99 14.0153 129.107 13.8623C129.225 13.7061 129.291 13.5286 129.308 13.3301H130.167C130.151 13.6426 130.045 13.9339 129.85 14.2041C129.658 14.471 129.405 14.6875 129.093 14.8535C128.78 15.0163 128.437 15.0977 128.062 15.0977C127.665 15.0977 127.319 15.0277 127.022 14.8877C126.729 14.7477 126.485 14.5557 126.29 14.3115C126.098 14.0674 125.953 13.7874 125.855 13.4717C125.761 13.1527 125.714 12.8158 125.714 12.4609V12.2559C125.714 11.901 125.761 11.5658 125.855 11.25C125.953 10.931 126.098 10.6494 126.29 10.4053C126.485 10.1611 126.729 9.96908 127.022 9.8291C127.319 9.68913 127.665 9.61914 128.062 9.61914C128.476 9.61914 128.837 9.70378 129.146 9.87305C129.456 10.0391 129.698 10.2669 129.874 10.5566C130.053 10.8431 130.151 11.1686 130.167 11.5332H129.308C129.291 11.3151 129.229 11.1182 129.122 10.9424C129.018 10.7666 128.875 10.6266 128.692 10.5225C128.513 10.415 128.303 10.3613 128.062 10.3613C127.786 10.3613 127.553 10.4167 127.364 10.5273C127.179 10.6348 127.031 10.7812 126.92 10.9668C126.812 11.1491 126.734 11.3525 126.686 11.5771C126.64 11.7985 126.617 12.0247 126.617 12.2559V12.4609C126.617 12.6921 126.64 12.9199 126.686 13.1445C126.731 13.3691 126.808 13.5726 126.915 13.7549C127.026 13.9372 127.174 14.0837 127.359 14.1943C127.548 14.3018 127.783 14.3555 128.062 14.3555ZM130.943 12.417V12.3047C130.943 11.9238 130.999 11.5706 131.109 11.2451C131.22 10.9163 131.38 10.6315 131.588 10.3906C131.796 10.1465 132.049 9.95768 132.345 9.82422C132.641 9.6875 132.973 9.61914 133.341 9.61914C133.712 9.61914 134.046 9.6875 134.342 9.82422C134.641 9.95768 134.895 10.1465 135.104 10.3906C135.315 10.6315 135.476 10.9163 135.587 11.2451C135.698 11.5706 135.753 11.9238 135.753 12.3047V12.417C135.753 12.7979 135.698 13.151 135.587 13.4766C135.476 13.8021 135.315 14.0869 135.104 14.3311C134.895 14.5719 134.643 14.7607 134.347 14.8975C134.054 15.0309 133.722 15.0977 133.351 15.0977C132.979 15.0977 132.646 15.0309 132.35 14.8975C132.053 14.7607 131.799 14.5719 131.588 14.3311C131.38 14.0869 131.22 13.8021 131.109 13.4766C130.999 13.151 130.943 12.7979 130.943 12.417ZM131.847 12.3047V12.417C131.847 12.6807 131.878 12.9297 131.939 13.1641C132.001 13.3952 132.094 13.6003 132.218 13.7793C132.345 13.9583 132.503 14.0999 132.691 14.2041C132.88 14.305 133.1 14.3555 133.351 14.3555C133.598 14.3555 133.814 14.305 134 14.2041C134.189 14.0999 134.345 13.9583 134.469 13.7793C134.592 13.6003 134.685 13.3952 134.747 13.1641C134.812 12.9297 134.845 12.6807 134.845 12.417V12.3047C134.845 12.0443 134.812 11.7985 134.747 11.5674C134.685 11.333 134.591 11.1263 134.464 10.9473C134.34 10.765 134.184 10.6217 133.995 10.5176C133.81 10.4134 133.591 10.3613 133.341 10.3613C133.093 10.3613 132.875 10.4134 132.687 10.5176C132.501 10.6217 132.345 10.765 132.218 10.9473C132.094 11.1263 132.001 11.333 131.939 11.5674C131.878 11.7985 131.847 12.0443 131.847 12.3047ZM137.789 10.8447V15H136.886V9.7168H137.74L137.789 10.8447ZM137.574 12.1582L137.198 12.1436C137.201 11.7822 137.255 11.4486 137.359 11.1426C137.464 10.8333 137.61 10.5648 137.799 10.3369C137.988 10.109 138.212 9.93327 138.473 9.80957C138.736 9.68262 139.028 9.61914 139.347 9.61914C139.607 9.61914 139.841 9.65495 140.05 9.72656C140.258 9.79492 140.436 9.9056 140.582 10.0586C140.732 10.2116 140.846 10.4102 140.924 10.6543C141.002 10.8952 141.041 11.1898 141.041 11.5381V15H140.133V11.5283C140.133 11.2516 140.092 11.0303 140.011 10.8643C139.929 10.695 139.811 10.5729 139.654 10.498C139.498 10.4199 139.306 10.3809 139.078 10.3809C138.854 10.3809 138.648 10.4281 138.463 10.5225C138.281 10.6169 138.123 10.7471 137.989 10.9131C137.859 11.0791 137.757 11.2695 137.682 11.4844C137.61 11.696 137.574 11.9206 137.574 12.1582ZM144.625 9.7168V10.4102H141.769V9.7168H144.625ZM142.735 8.43262H143.639V13.6914C143.639 13.8704 143.666 14.0055 143.722 14.0967C143.777 14.1878 143.849 14.248 143.937 14.2773C144.024 14.3066 144.119 14.3213 144.22 14.3213C144.295 14.3213 144.373 14.3148 144.454 14.3018C144.539 14.2855 144.602 14.2725 144.645 14.2627L144.649 15C144.578 15.0228 144.483 15.0439 144.366 15.0635C144.252 15.0863 144.114 15.0977 143.951 15.0977C143.73 15.0977 143.526 15.0537 143.341 14.9658C143.155 14.8779 143.007 14.7314 142.896 14.5264C142.789 14.318 142.735 14.0381 142.735 13.6865V8.43262ZM148.8 14.0967V11.377C148.8 11.1686 148.757 10.988 148.673 10.835C148.591 10.6787 148.468 10.5583 148.302 10.4736C148.136 10.389 147.931 10.3467 147.687 10.3467C147.459 10.3467 147.258 10.3857 147.086 10.4639C146.917 10.542 146.783 10.6445 146.686 10.7715C146.591 10.8984 146.544 11.0352 146.544 11.1816H145.641C145.641 10.9928 145.689 10.8057 145.787 10.6201C145.885 10.4346 146.025 10.2669 146.207 10.1172C146.393 9.96419 146.614 9.84375 146.871 9.75586C147.132 9.66471 147.421 9.61914 147.74 9.61914C148.124 9.61914 148.463 9.68424 148.756 9.81445C149.052 9.94466 149.283 10.1416 149.449 10.4053C149.618 10.6657 149.703 10.9928 149.703 11.3867V13.8477C149.703 14.0234 149.718 14.2106 149.747 14.4092C149.78 14.6077 149.827 14.7786 149.889 14.9219V15H148.946C148.901 14.8958 148.865 14.7575 148.839 14.585C148.813 14.4092 148.8 14.2464 148.8 14.0967ZM148.956 11.7969L148.966 12.4316H148.053C147.796 12.4316 147.566 12.4528 147.364 12.4951C147.162 12.5342 146.993 12.5944 146.856 12.6758C146.72 12.7572 146.616 12.8597 146.544 12.9834C146.472 13.1038 146.437 13.2454 146.437 13.4082C146.437 13.5742 146.474 13.7256 146.549 13.8623C146.624 13.999 146.736 14.1081 146.886 14.1895C147.039 14.2676 147.226 14.3066 147.447 14.3066C147.724 14.3066 147.968 14.248 148.18 14.1309C148.391 14.0137 148.559 13.8704 148.683 13.7012C148.81 13.5319 148.878 13.3675 148.888 13.208L149.273 13.6426C149.251 13.7793 149.189 13.9307 149.088 14.0967C148.987 14.2627 148.852 14.4222 148.683 14.5752C148.517 14.7249 148.318 14.8503 148.087 14.9512C147.859 15.0488 147.602 15.0977 147.315 15.0977C146.957 15.0977 146.643 15.0277 146.373 14.8877C146.106 14.7477 145.898 14.5605 145.748 14.3262C145.602 14.0885 145.528 13.8232 145.528 13.5303C145.528 13.2471 145.584 12.998 145.694 12.7832C145.805 12.5651 145.965 12.3844 146.173 12.2412C146.381 12.0947 146.632 11.984 146.925 11.9092C147.218 11.8343 147.545 11.7969 147.906 11.7969H148.956ZM152.105 9.7168V15H151.197V9.7168H152.105ZM151.129 8.31543C151.129 8.16895 151.173 8.04525 151.261 7.94434C151.352 7.84342 151.485 7.79297 151.661 7.79297C151.834 7.79297 151.965 7.84342 152.057 7.94434C152.151 8.04525 152.198 8.16895 152.198 8.31543C152.198 8.4554 152.151 8.57585 152.057 8.67676C151.965 8.77441 151.834 8.82324 151.661 8.82324C151.485 8.82324 151.352 8.77441 151.261 8.67676C151.173 8.57585 151.129 8.4554 151.129 8.31543ZM154.459 10.8447V15H153.556V9.7168H154.41L154.459 10.8447ZM154.244 12.1582L153.868 12.1436C153.871 11.7822 153.925 11.4486 154.029 11.1426C154.133 10.8333 154.28 10.5648 154.469 10.3369C154.658 10.109 154.882 9.93327 155.143 9.80957C155.406 9.68262 155.698 9.61914 156.017 9.61914C156.277 9.61914 156.511 9.65495 156.72 9.72656C156.928 9.79492 157.105 9.9056 157.252 10.0586C157.402 10.2116 157.516 10.4102 157.594 10.6543C157.672 10.8952 157.711 11.1898 157.711 11.5381V15H156.803V11.5283C156.803 11.2516 156.762 11.0303 156.681 10.8643C156.599 10.695 156.48 10.5729 156.324 10.498C156.168 10.4199 155.976 10.3809 155.748 10.3809C155.523 10.3809 155.318 10.4281 155.133 10.5225C154.951 10.6169 154.793 10.7471 154.659 10.9131C154.529 11.0791 154.426 11.2695 154.352 11.4844C154.28 11.696 154.244 11.9206 154.244 12.1582ZM162.159 13.5986C162.159 13.4684 162.13 13.348 162.071 13.2373C162.016 13.1234 161.9 13.0208 161.725 12.9297C161.552 12.8353 161.292 12.7539 160.943 12.6855C160.65 12.6237 160.385 12.5505 160.147 12.4658C159.913 12.3812 159.713 12.2786 159.547 12.1582C159.384 12.0378 159.259 11.8962 159.171 11.7334C159.083 11.5706 159.039 11.3802 159.039 11.1621C159.039 10.9538 159.085 10.7568 159.176 10.5713C159.27 10.3857 159.402 10.2214 159.571 10.0781C159.744 9.9349 159.951 9.82259 160.191 9.74121C160.432 9.65983 160.701 9.61914 160.997 9.61914C161.42 9.61914 161.782 9.69401 162.081 9.84375C162.381 9.99349 162.61 10.1937 162.77 10.4443C162.929 10.6917 163.009 10.9668 163.009 11.2695H162.105C162.105 11.123 162.062 10.9814 161.974 10.8447C161.889 10.7048 161.764 10.5892 161.598 10.498C161.435 10.4069 161.235 10.3613 160.997 10.3613C160.746 10.3613 160.543 10.4004 160.387 10.4785C160.234 10.5534 160.121 10.6494 160.05 10.7666C159.981 10.8838 159.947 11.0075 159.947 11.1377C159.947 11.2354 159.964 11.3232 159.996 11.4014C160.032 11.4762 160.094 11.5462 160.182 11.6113C160.27 11.6732 160.393 11.7318 160.553 11.7871C160.712 11.8424 160.916 11.8978 161.163 11.9531C161.596 12.0508 161.952 12.168 162.232 12.3047C162.512 12.4414 162.721 12.609 162.857 12.8076C162.994 13.0062 163.062 13.2471 163.062 13.5303C163.062 13.7614 163.014 13.973 162.916 14.165C162.822 14.3571 162.683 14.5231 162.501 14.6631C162.322 14.7998 162.107 14.9072 161.856 14.9854C161.609 15.0602 161.331 15.0977 161.021 15.0977C160.556 15.0977 160.162 15.0146 159.84 14.8486C159.518 14.6826 159.273 14.4678 159.107 14.2041C158.941 13.9404 158.858 13.6621 158.858 13.3691H159.767C159.78 13.6165 159.851 13.8135 159.981 13.96C160.112 14.1032 160.271 14.2057 160.46 14.2676C160.649 14.3262 160.836 14.3555 161.021 14.3555C161.269 14.3555 161.476 14.3229 161.642 14.2578C161.811 14.1927 161.939 14.1032 162.027 13.9893C162.115 13.8753 162.159 13.7451 162.159 13.5986ZM168.844 14.3555C169.059 14.3555 169.257 14.3115 169.439 14.2236C169.622 14.1357 169.771 14.0153 169.889 13.8623C170.006 13.7061 170.073 13.5286 170.089 13.3301H170.948C170.932 13.6426 170.826 13.9339 170.631 14.2041C170.439 14.471 170.187 14.6875 169.874 14.8535C169.562 15.0163 169.218 15.0977 168.844 15.0977C168.447 15.0977 168.1 15.0277 167.804 14.8877C167.511 14.7477 167.267 14.5557 167.071 14.3115C166.879 14.0674 166.734 13.7874 166.637 13.4717C166.542 13.1527 166.495 12.8158 166.495 12.4609V12.2559C166.495 11.901 166.542 11.5658 166.637 11.25C166.734 10.931 166.879 10.6494 167.071 10.4053C167.267 10.1611 167.511 9.96908 167.804 9.8291C168.1 9.68913 168.447 9.61914 168.844 9.61914C169.257 9.61914 169.618 9.70378 169.928 9.87305C170.237 10.0391 170.479 10.2669 170.655 10.5566C170.834 10.8431 170.932 11.1686 170.948 11.5332H170.089C170.073 11.3151 170.011 11.1182 169.903 10.9424C169.799 10.7666 169.656 10.6266 169.474 10.5225C169.295 10.415 169.085 10.3613 168.844 10.3613C168.567 10.3613 168.334 10.4167 168.146 10.5273C167.96 10.6348 167.812 10.7812 167.701 10.9668C167.594 11.1491 167.516 11.3525 167.467 11.5771C167.421 11.7985 167.398 12.0247 167.398 12.2559V12.4609C167.398 12.6921 167.421 12.9199 167.467 13.1445C167.512 13.3691 167.589 13.5726 167.696 13.7549C167.807 13.9372 167.955 14.0837 168.141 14.1943C168.329 14.3018 168.564 14.3555 168.844 14.3555ZM171.725 12.417V12.3047C171.725 11.9238 171.78 11.5706 171.891 11.2451C172.001 10.9163 172.161 10.6315 172.369 10.3906C172.577 10.1465 172.83 9.95768 173.126 9.82422C173.422 9.6875 173.754 9.61914 174.122 9.61914C174.493 9.61914 174.827 9.6875 175.123 9.82422C175.423 9.95768 175.676 10.1465 175.885 10.3906C176.096 10.6315 176.257 10.9163 176.368 11.2451C176.479 11.5706 176.534 11.9238 176.534 12.3047V12.417C176.534 12.7979 176.479 13.151 176.368 13.4766C176.257 13.8021 176.096 14.0869 175.885 14.3311C175.676 14.5719 175.424 14.7607 175.128 14.8975C174.835 15.0309 174.503 15.0977 174.132 15.0977C173.761 15.0977 173.427 15.0309 173.131 14.8975C172.835 14.7607 172.581 14.5719 172.369 14.3311C172.161 14.0869 172.001 13.8021 171.891 13.4766C171.78 13.151 171.725 12.7979 171.725 12.417ZM172.628 12.3047V12.417C172.628 12.6807 172.659 12.9297 172.721 13.1641C172.783 13.3952 172.875 13.6003 172.999 13.7793C173.126 13.9583 173.284 14.0999 173.473 14.2041C173.661 14.305 173.881 14.3555 174.132 14.3555C174.379 14.3555 174.596 14.305 174.781 14.2041C174.97 14.0999 175.126 13.9583 175.25 13.7793C175.374 13.6003 175.466 13.3952 175.528 13.1641C175.593 12.9297 175.626 12.6807 175.626 12.417V12.3047C175.626 12.0443 175.593 11.7985 175.528 11.5674C175.466 11.333 175.372 11.1263 175.245 10.9473C175.121 10.765 174.965 10.6217 174.776 10.5176C174.591 10.4134 174.373 10.3613 174.122 10.3613C173.875 10.3613 173.657 10.4134 173.468 10.5176C173.282 10.6217 173.126 10.765 172.999 10.9473C172.875 11.1263 172.783 11.333 172.721 11.5674C172.659 11.7985 172.628 12.0443 172.628 12.3047ZM178.57 10.8447V15H177.667V9.7168H178.521L178.57 10.8447ZM178.355 12.1582L177.979 12.1436C177.983 11.7822 178.036 11.4486 178.141 11.1426C178.245 10.8333 178.391 10.5648 178.58 10.3369C178.769 10.109 178.993 9.93327 179.254 9.80957C179.518 9.68262 179.809 9.61914 180.128 9.61914C180.388 9.61914 180.623 9.65495 180.831 9.72656C181.039 9.79492 181.217 9.9056 181.363 10.0586C181.513 10.2116 181.627 10.4102 181.705 10.6543C181.783 10.8952 181.822 11.1898 181.822 11.5381V15H180.914V11.5283C180.914 11.2516 180.873 11.0303 180.792 10.8643C180.711 10.695 180.592 10.5729 180.436 10.498C180.279 10.4199 180.087 10.3809 179.859 10.3809C179.635 10.3809 179.43 10.4281 179.244 10.5225C179.062 10.6169 178.904 10.7471 178.771 10.9131C178.64 11.0791 178.538 11.2695 178.463 11.4844C178.391 11.696 178.355 11.9206 178.355 12.1582ZM185.406 9.7168V10.4102H182.55V9.7168H185.406ZM183.517 8.43262H184.42V13.6914C184.42 13.8704 184.448 14.0055 184.503 14.0967C184.558 14.1878 184.63 14.248 184.718 14.2773C184.806 14.3066 184.9 14.3213 185.001 14.3213C185.076 14.3213 185.154 14.3148 185.235 14.3018C185.32 14.2855 185.383 14.2725 185.426 14.2627L185.431 15C185.359 15.0228 185.265 15.0439 185.147 15.0635C185.034 15.0863 184.895 15.0977 184.732 15.0977C184.511 15.0977 184.308 15.0537 184.122 14.9658C183.937 14.8779 183.788 14.7314 183.678 14.5264C183.57 14.318 183.517 14.0381 183.517 13.6865V8.43262ZM188.658 15.0977C188.29 15.0977 187.957 15.0358 187.657 14.9121C187.361 14.7852 187.105 14.6077 186.891 14.3799C186.679 14.152 186.516 13.8818 186.402 13.5693C186.288 13.2568 186.231 12.915 186.231 12.5439V12.3389C186.231 11.9092 186.295 11.5267 186.422 11.1914C186.549 10.8529 186.721 10.5664 186.939 10.332C187.158 10.0977 187.405 9.92025 187.682 9.7998C187.958 9.67936 188.245 9.61914 188.541 9.61914C188.919 9.61914 189.244 9.68424 189.518 9.81445C189.794 9.94466 190.021 10.127 190.196 10.3613C190.372 10.5924 190.502 10.8659 190.587 11.1816C190.672 11.4941 190.714 11.8359 190.714 12.207V12.6123H186.769V11.875H189.811V11.8066C189.798 11.5723 189.749 11.3444 189.664 11.123C189.583 10.9017 189.452 10.7194 189.273 10.5762C189.094 10.4329 188.85 10.3613 188.541 10.3613C188.336 10.3613 188.147 10.4053 187.975 10.4932C187.802 10.5778 187.654 10.7048 187.53 10.874C187.407 11.0433 187.311 11.25 187.242 11.4941C187.174 11.7383 187.14 12.0199 187.14 12.3389V12.5439C187.14 12.7946 187.174 13.0306 187.242 13.252C187.314 13.4701 187.416 13.6621 187.55 13.8281C187.687 13.9941 187.851 14.1243 188.043 14.2188C188.238 14.3132 188.46 14.3604 188.707 14.3604C189.026 14.3604 189.296 14.2952 189.518 14.165C189.739 14.0348 189.933 13.8607 190.099 13.6426L190.646 14.0771C190.532 14.2497 190.387 14.4141 190.211 14.5703C190.035 14.7266 189.819 14.8535 189.562 14.9512C189.308 15.0488 189.007 15.0977 188.658 15.0977ZM192.672 10.8447V15H191.769V9.7168H192.623L192.672 10.8447ZM192.457 12.1582L192.081 12.1436C192.084 11.7822 192.138 11.4486 192.242 11.1426C192.346 10.8333 192.493 10.5648 192.682 10.3369C192.87 10.109 193.095 9.93327 193.355 9.80957C193.619 9.68262 193.91 9.61914 194.229 9.61914C194.49 9.61914 194.724 9.65495 194.933 9.72656C195.141 9.79492 195.318 9.9056 195.465 10.0586C195.615 10.2116 195.729 10.4102 195.807 10.6543C195.885 10.8952 195.924 11.1898 195.924 11.5381V15H195.016V11.5283C195.016 11.2516 194.975 11.0303 194.894 10.8643C194.812 10.695 194.693 10.5729 194.537 10.498C194.381 10.4199 194.189 10.3809 193.961 10.3809C193.736 10.3809 193.531 10.4281 193.346 10.5225C193.163 10.6169 193.006 10.7471 192.872 10.9131C192.742 11.0791 192.639 11.2695 192.564 11.4844C192.493 11.696 192.457 11.9206 192.457 12.1582ZM199.508 9.7168V10.4102H196.651V9.7168H199.508ZM197.618 8.43262H198.521V13.6914C198.521 13.8704 198.549 14.0055 198.604 14.0967C198.66 14.1878 198.731 14.248 198.819 14.2773C198.907 14.3066 199.002 14.3213 199.103 14.3213C199.177 14.3213 199.256 14.3148 199.337 14.3018C199.422 14.2855 199.485 14.2725 199.527 14.2627L199.532 15C199.461 15.0228 199.366 15.0439 199.249 15.0635C199.135 15.0863 198.997 15.0977 198.834 15.0977C198.613 15.0977 198.409 15.0537 198.224 14.9658C198.038 14.8779 197.89 14.7314 197.779 14.5264C197.672 14.318 197.618 14.0381 197.618 13.6865V8.43262ZM202.809 12.417V12.3047C202.809 11.9238 202.864 11.5706 202.975 11.2451C203.085 10.9163 203.245 10.6315 203.453 10.3906C203.661 10.1465 203.914 9.95768 204.21 9.82422C204.506 9.6875 204.838 9.61914 205.206 9.61914C205.577 9.61914 205.911 9.6875 206.207 9.82422C206.507 9.95768 206.76 10.1465 206.969 10.3906C207.18 10.6315 207.341 10.9163 207.452 11.2451C207.563 11.5706 207.618 11.9238 207.618 12.3047V12.417C207.618 12.7979 207.563 13.151 207.452 13.4766C207.341 13.8021 207.18 14.0869 206.969 14.3311C206.76 14.5719 206.508 14.7607 206.212 14.8975C205.919 15.0309 205.587 15.0977 205.216 15.0977C204.845 15.0977 204.511 15.0309 204.215 14.8975C203.919 14.7607 203.665 14.5719 203.453 14.3311C203.245 14.0869 203.085 13.8021 202.975 13.4766C202.864 13.151 202.809 12.7979 202.809 12.417ZM203.712 12.3047V12.417C203.712 12.6807 203.743 12.9297 203.805 13.1641C203.867 13.3952 203.959 13.6003 204.083 13.7793C204.21 13.9583 204.368 14.0999 204.557 14.2041C204.745 14.305 204.965 14.3555 205.216 14.3555C205.463 14.3555 205.68 14.305 205.865 14.2041C206.054 14.0999 206.21 13.9583 206.334 13.7793C206.458 13.6003 206.55 13.3952 206.612 13.1641C206.677 12.9297 206.71 12.6807 206.71 12.417V12.3047C206.71 12.0443 206.677 11.7985 206.612 11.5674C206.55 11.333 206.456 11.1263 206.329 10.9473C206.205 10.765 206.049 10.6217 205.86 10.5176C205.675 10.4134 205.457 10.3613 205.206 10.3613C204.959 10.3613 204.741 10.4134 204.552 10.5176C204.366 10.6217 204.21 10.765 204.083 10.9473C203.959 11.1263 203.867 11.333 203.805 11.5674C203.743 11.7985 203.712 12.0443 203.712 12.3047ZM210.099 15H209.195V9.16016C209.195 8.7793 209.264 8.45866 209.4 8.19824C209.54 7.93457 209.741 7.736 210.001 7.60254C210.261 7.46582 210.571 7.39746 210.929 7.39746C211.033 7.39746 211.137 7.40397 211.241 7.41699C211.349 7.43001 211.453 7.44954 211.554 7.47559L211.505 8.21289C211.437 8.19661 211.358 8.18522 211.271 8.17871C211.186 8.1722 211.101 8.16895 211.017 8.16895C210.825 8.16895 210.659 8.20801 210.519 8.28613C210.382 8.361 210.278 8.47168 210.206 8.61816C210.134 8.76465 210.099 8.94531 210.099 9.16016V15ZM211.222 9.7168V10.4102H208.36V9.7168H211.222ZM217.823 14.0967V11.377C217.823 11.1686 217.781 10.988 217.696 10.835C217.615 10.6787 217.491 10.5583 217.325 10.4736C217.159 10.389 216.954 10.3467 216.71 10.3467C216.482 10.3467 216.282 10.3857 216.109 10.4639C215.94 10.542 215.807 10.6445 215.709 10.7715C215.615 10.8984 215.567 11.0352 215.567 11.1816H214.664C214.664 10.9928 214.713 10.8057 214.811 10.6201C214.908 10.4346 215.048 10.2669 215.23 10.1172C215.416 9.96419 215.637 9.84375 215.895 9.75586C216.155 9.66471 216.445 9.61914 216.764 9.61914C217.148 9.61914 217.486 9.68424 217.779 9.81445C218.076 9.94466 218.307 10.1416 218.473 10.4053C218.642 10.6657 218.727 10.9928 218.727 11.3867V13.8477C218.727 14.0234 218.741 14.2106 218.771 14.4092C218.803 14.6077 218.85 14.7786 218.912 14.9219V15H217.97C217.924 14.8958 217.888 14.7575 217.862 14.585C217.836 14.4092 217.823 14.2464 217.823 14.0967ZM217.979 11.7969L217.989 12.4316H217.076C216.819 12.4316 216.59 12.4528 216.388 12.4951C216.186 12.5342 216.017 12.5944 215.88 12.6758C215.743 12.7572 215.639 12.8597 215.567 12.9834C215.496 13.1038 215.46 13.2454 215.46 13.4082C215.46 13.5742 215.497 13.7256 215.572 13.8623C215.647 13.999 215.759 14.1081 215.909 14.1895C216.062 14.2676 216.249 14.3066 216.471 14.3066C216.747 14.3066 216.992 14.248 217.203 14.1309C217.415 14.0137 217.582 13.8704 217.706 13.7012C217.833 13.5319 217.901 13.3675 217.911 13.208L218.297 13.6426C218.274 13.7793 218.212 13.9307 218.111 14.0967C218.01 14.2627 217.875 14.4222 217.706 14.5752C217.54 14.7249 217.341 14.8503 217.11 14.9512C216.882 15.0488 216.625 15.0977 216.339 15.0977C215.981 15.0977 215.667 15.0277 215.396 14.8877C215.13 14.7477 214.921 14.5605 214.771 14.3262C214.625 14.0885 214.552 13.8232 214.552 13.5303C214.552 13.2471 214.607 12.998 214.718 12.7832C214.828 12.5651 214.988 12.3844 215.196 12.2412C215.405 12.0947 215.655 11.984 215.948 11.9092C216.241 11.8343 216.568 11.7969 216.93 11.7969H217.979ZM221.051 10.8447V15H220.147V9.7168H221.002L221.051 10.8447ZM220.836 12.1582L220.46 12.1436C220.463 11.7822 220.517 11.4486 220.621 11.1426C220.725 10.8333 220.872 10.5648 221.061 10.3369C221.249 10.109 221.474 9.93327 221.734 9.80957C221.998 9.68262 222.289 9.61914 222.608 9.61914C222.869 9.61914 223.103 9.65495 223.312 9.72656C223.52 9.79492 223.697 9.9056 223.844 10.0586C223.993 10.2116 224.107 10.4102 224.186 10.6543C224.264 10.8952 224.303 11.1898 224.303 11.5381V15H223.395V11.5283C223.395 11.2516 223.354 11.0303 223.272 10.8643C223.191 10.695 223.072 10.5729 222.916 10.498C222.76 10.4199 222.568 10.3809 222.34 10.3809C222.115 10.3809 221.91 10.4281 221.725 10.5225C221.542 10.6169 221.384 10.7471 221.251 10.9131C221.121 11.0791 221.018 11.2695 220.943 11.4844C220.872 11.696 220.836 11.9206 220.836 12.1582ZM231.271 14.0967V11.377C231.271 11.1686 231.228 10.988 231.144 10.835C231.062 10.6787 230.938 10.5583 230.772 10.4736C230.606 10.389 230.401 10.3467 230.157 10.3467C229.929 10.3467 229.729 10.3857 229.557 10.4639C229.387 10.542 229.254 10.6445 229.156 10.7715C229.062 10.8984 229.015 11.0352 229.015 11.1816H228.111C228.111 10.9928 228.16 10.8057 228.258 10.6201C228.355 10.4346 228.495 10.2669 228.678 10.1172C228.863 9.96419 229.085 9.84375 229.342 9.75586C229.602 9.66471 229.892 9.61914 230.211 9.61914C230.595 9.61914 230.934 9.68424 231.227 9.81445C231.523 9.94466 231.754 10.1416 231.92 10.4053C232.089 10.6657 232.174 10.9928 232.174 11.3867V13.8477C232.174 14.0234 232.188 14.2106 232.218 14.4092C232.25 14.6077 232.298 14.7786 232.359 14.9219V15H231.417C231.371 14.8958 231.336 14.7575 231.31 14.585C231.284 14.4092 231.271 14.2464 231.271 14.0967ZM231.427 11.7969L231.437 12.4316H230.523C230.266 12.4316 230.037 12.4528 229.835 12.4951C229.633 12.5342 229.464 12.5944 229.327 12.6758C229.19 12.7572 229.086 12.8597 229.015 12.9834C228.943 13.1038 228.907 13.2454 228.907 13.4082C228.907 13.5742 228.945 13.7256 229.02 13.8623C229.094 13.999 229.207 14.1081 229.356 14.1895C229.509 14.2676 229.697 14.3066 229.918 14.3066C230.195 14.3066 230.439 14.248 230.65 14.1309C230.862 14.0137 231.03 13.8704 231.153 13.7012C231.28 13.5319 231.349 13.3675 231.358 13.208L231.744 13.6426C231.721 13.7793 231.66 13.9307 231.559 14.0967C231.458 14.2627 231.323 14.4222 231.153 14.5752C230.987 14.7249 230.789 14.8503 230.558 14.9512C230.33 15.0488 230.073 15.0977 229.786 15.0977C229.428 15.0977 229.114 15.0277 228.844 14.8877C228.577 14.7477 228.368 14.5605 228.219 14.3262C228.072 14.0885 227.999 13.8232 227.999 13.5303C227.999 13.2471 228.054 12.998 228.165 12.7832C228.276 12.5651 228.435 12.3844 228.644 12.2412C228.852 12.0947 229.103 11.984 229.396 11.9092C229.688 11.8343 230.016 11.7969 230.377 11.7969H231.427ZM236.925 13.9746V7.5H237.833V15H237.003L236.925 13.9746ZM233.37 12.417V12.3145C233.37 11.9108 233.419 11.5446 233.517 11.2158C233.618 10.8838 233.759 10.599 233.941 10.3613C234.127 10.1237 234.347 9.94141 234.601 9.81445C234.858 9.68424 235.144 9.61914 235.46 9.61914C235.792 9.61914 236.082 9.67773 236.329 9.79492C236.58 9.90885 236.791 10.0765 236.964 10.2979C237.14 10.516 237.278 10.7796 237.379 11.0889C237.48 11.3981 237.55 11.748 237.589 12.1387V12.5879C237.553 12.9753 237.483 13.3236 237.379 13.6328C237.278 13.9421 237.14 14.2057 236.964 14.4238C236.791 14.6419 236.58 14.8096 236.329 14.9268C236.078 15.0407 235.785 15.0977 235.45 15.0977C235.141 15.0977 234.858 15.0309 234.601 14.8975C234.347 14.764 234.127 14.5768 233.941 14.3359C233.759 14.0951 233.618 13.8118 233.517 13.4863C233.419 13.1576 233.37 12.8011 233.37 12.417ZM234.278 12.3145V12.417C234.278 12.6807 234.304 12.9281 234.356 13.1592C234.412 13.3903 234.496 13.5938 234.61 13.7695C234.724 13.9453 234.869 14.0837 235.045 14.1846C235.221 14.2822 235.431 14.3311 235.675 14.3311C235.974 14.3311 236.22 14.2676 236.412 14.1406C236.607 14.0137 236.764 13.846 236.881 13.6377C236.998 13.4294 237.089 13.2031 237.154 12.959V11.7822C237.115 11.6032 237.058 11.4307 236.983 11.2646C236.912 11.0954 236.817 10.9456 236.7 10.8154C236.586 10.682 236.445 10.5762 236.275 10.498C236.109 10.4199 235.912 10.3809 235.685 10.3809C235.437 10.3809 235.224 10.4329 235.045 10.5371C234.869 10.638 234.724 10.778 234.61 10.957C234.496 11.1328 234.412 11.3379 234.356 11.5723C234.304 11.8034 234.278 12.0508 234.278 12.3145ZM242.472 13.7793V9.7168H243.38V15H242.516L242.472 13.7793ZM242.643 12.666L243.019 12.6562C243.019 13.0078 242.981 13.3333 242.906 13.6328C242.835 13.929 242.717 14.1862 242.555 14.4043C242.392 14.6224 242.179 14.7933 241.915 14.917C241.651 15.0374 241.331 15.0977 240.953 15.0977C240.696 15.0977 240.46 15.0602 240.245 14.9854C240.034 14.9105 239.851 14.7949 239.698 14.6387C239.545 14.4824 239.426 14.279 239.342 14.0283C239.26 13.7777 239.22 13.4766 239.22 13.125V9.7168H240.123V13.1348C240.123 13.3724 240.149 13.5693 240.201 13.7256C240.257 13.8786 240.33 14.0007 240.421 14.0918C240.515 14.1797 240.619 14.2415 240.733 14.2773C240.851 14.3132 240.971 14.3311 241.095 14.3311C241.479 14.3311 241.783 14.2578 242.008 14.1113C242.232 13.9616 242.394 13.7614 242.491 13.5107C242.592 13.2568 242.643 12.9753 242.643 12.666ZM245.738 7.5V15H244.83V7.5H245.738ZM249.4 9.7168V10.4102H246.544V9.7168H249.4ZM247.511 8.43262H248.414V13.6914C248.414 13.8704 248.442 14.0055 248.497 14.0967C248.552 14.1878 248.624 14.248 248.712 14.2773C248.8 14.3066 248.894 14.3213 248.995 14.3213C249.07 14.3213 249.148 14.3148 249.229 14.3018C249.314 14.2855 249.378 14.2725 249.42 14.2627L249.425 15C249.353 15.0228 249.259 15.0439 249.142 15.0635C249.028 15.0863 248.889 15.0977 248.727 15.0977C248.505 15.0977 248.302 15.0537 248.116 14.9658C247.931 14.8779 247.783 14.7314 247.672 14.5264C247.564 14.318 247.511 14.0381 247.511 13.6865V8.43262ZM253.844 10.8447V15H252.94V9.7168H253.795L253.844 10.8447ZM253.629 12.1582L253.253 12.1436C253.256 11.7822 253.31 11.4486 253.414 11.1426C253.518 10.8333 253.665 10.5648 253.854 10.3369C254.042 10.109 254.267 9.93327 254.527 9.80957C254.791 9.68262 255.082 9.61914 255.401 9.61914C255.662 9.61914 255.896 9.65495 256.104 9.72656C256.313 9.79492 256.49 9.9056 256.637 10.0586C256.786 10.2116 256.9 10.4102 256.979 10.6543C257.057 10.8952 257.096 11.1898 257.096 11.5381V15H256.188V11.5283C256.188 11.2516 256.147 11.0303 256.065 10.8643C255.984 10.695 255.865 10.5729 255.709 10.498C255.553 10.4199 255.361 10.3809 255.133 10.3809C254.908 10.3809 254.703 10.4281 254.518 10.5225C254.335 10.6169 254.177 10.7471 254.044 10.9131C253.914 11.0791 253.811 11.2695 253.736 11.4844C253.665 11.696 253.629 11.9206 253.629 12.1582ZM261.583 14.0967V11.377C261.583 11.1686 261.541 10.988 261.456 10.835C261.375 10.6787 261.251 10.5583 261.085 10.4736C260.919 10.389 260.714 10.3467 260.47 10.3467C260.242 10.3467 260.042 10.3857 259.869 10.4639C259.7 10.542 259.566 10.6445 259.469 10.7715C259.374 10.8984 259.327 11.0352 259.327 11.1816H258.424C258.424 10.9928 258.473 10.8057 258.57 10.6201C258.668 10.4346 258.808 10.2669 258.99 10.1172C259.176 9.96419 259.397 9.84375 259.654 9.75586C259.915 9.66471 260.204 9.61914 260.523 9.61914C260.908 9.61914 261.246 9.68424 261.539 9.81445C261.835 9.94466 262.066 10.1416 262.232 10.4053C262.402 10.6657 262.486 10.9928 262.486 11.3867V13.8477C262.486 14.0234 262.501 14.2106 262.53 14.4092C262.563 14.6077 262.61 14.7786 262.672 14.9219V15H261.729C261.684 14.8958 261.648 14.7575 261.622 14.585C261.596 14.4092 261.583 14.2464 261.583 14.0967ZM261.739 11.7969L261.749 12.4316H260.836C260.579 12.4316 260.349 12.4528 260.147 12.4951C259.946 12.5342 259.776 12.5944 259.64 12.6758C259.503 12.7572 259.399 12.8597 259.327 12.9834C259.256 13.1038 259.22 13.2454 259.22 13.4082C259.22 13.5742 259.257 13.7256 259.332 13.8623C259.407 13.999 259.519 14.1081 259.669 14.1895C259.822 14.2676 260.009 14.3066 260.23 14.3066C260.507 14.3066 260.751 14.248 260.963 14.1309C261.174 14.0137 261.342 13.8704 261.466 13.7012C261.593 13.5319 261.661 13.3675 261.671 13.208L262.057 13.6426C262.034 13.7793 261.972 13.9307 261.871 14.0967C261.77 14.2627 261.635 14.4222 261.466 14.5752C261.3 14.7249 261.101 14.8503 260.87 14.9512C260.642 15.0488 260.385 15.0977 260.099 15.0977C259.741 15.0977 259.426 15.0277 259.156 14.8877C258.889 14.7477 258.681 14.5605 258.531 14.3262C258.385 14.0885 258.312 13.8232 258.312 13.5303C258.312 13.2471 258.367 12.998 258.478 12.7832C258.588 12.5651 258.748 12.3844 258.956 12.2412C259.164 12.0947 259.415 11.984 259.708 11.9092C260.001 11.8343 260.328 11.7969 260.689 11.7969H261.739ZM266.119 9.7168V10.4102H263.263V9.7168H266.119ZM264.229 8.43262H265.133V13.6914C265.133 13.8704 265.16 14.0055 265.216 14.0967C265.271 14.1878 265.343 14.248 265.431 14.2773C265.519 14.3066 265.613 14.3213 265.714 14.3213C265.789 14.3213 265.867 14.3148 265.948 14.3018C266.033 14.2855 266.096 14.2725 266.139 14.2627L266.144 15C266.072 15.0228 265.978 15.0439 265.86 15.0635C265.746 15.0863 265.608 15.0977 265.445 15.0977C265.224 15.0977 265.021 15.0537 264.835 14.9658C264.649 14.8779 264.501 14.7314 264.391 14.5264C264.283 14.318 264.229 14.0381 264.229 13.6865V8.43262ZM270.411 13.7793V9.7168H271.319V15H270.455L270.411 13.7793ZM270.582 12.666L270.958 12.6562C270.958 13.0078 270.921 13.3333 270.846 13.6328C270.774 13.929 270.657 14.1862 270.494 14.4043C270.331 14.6224 270.118 14.7933 269.854 14.917C269.591 15.0374 269.27 15.0977 268.893 15.0977C268.635 15.0977 268.399 15.0602 268.185 14.9854C267.973 14.9105 267.791 14.7949 267.638 14.6387C267.485 14.4824 267.366 14.279 267.281 14.0283C267.2 13.7777 267.159 13.4766 267.159 13.125V9.7168H268.062V13.1348C268.062 13.3724 268.089 13.5693 268.141 13.7256C268.196 13.8786 268.269 14.0007 268.36 14.0918C268.455 14.1797 268.559 14.2415 268.673 14.2773C268.79 14.3132 268.91 14.3311 269.034 14.3311C269.418 14.3311 269.723 14.2578 269.947 14.1113C270.172 13.9616 270.333 13.7614 270.431 13.5107C270.532 13.2568 270.582 12.9753 270.582 12.666ZM273.6 10.5469V15H272.696V9.7168H273.575L273.6 10.5469ZM275.25 9.6875L275.245 10.5273C275.17 10.5111 275.099 10.5013 275.03 10.498C274.965 10.4915 274.89 10.4883 274.806 10.4883C274.597 10.4883 274.413 10.5208 274.254 10.5859C274.094 10.651 273.959 10.7422 273.849 10.8594C273.738 10.9766 273.65 11.1165 273.585 11.2793C273.523 11.4388 273.482 11.6146 273.463 11.8066L273.209 11.9531C273.209 11.6341 273.24 11.3346 273.302 11.0547C273.367 10.7747 273.466 10.5273 273.6 10.3125C273.733 10.0944 273.902 9.92513 274.107 9.80469C274.316 9.68099 274.563 9.61914 274.85 9.61914C274.915 9.61914 274.99 9.62728 275.074 9.64355C275.159 9.65658 275.217 9.67122 275.25 9.6875ZM278.18 15.0977C277.812 15.0977 277.478 15.0358 277.179 14.9121C276.882 14.7852 276.627 14.6077 276.412 14.3799C276.201 14.152 276.038 13.8818 275.924 13.5693C275.81 13.2568 275.753 12.915 275.753 12.5439V12.3389C275.753 11.9092 275.816 11.5267 275.943 11.1914C276.07 10.8529 276.243 10.5664 276.461 10.332C276.679 10.0977 276.926 9.92025 277.203 9.7998C277.48 9.67936 277.766 9.61914 278.062 9.61914C278.44 9.61914 278.766 9.68424 279.039 9.81445C279.316 9.94466 279.542 10.127 279.718 10.3613C279.894 10.5924 280.024 10.8659 280.108 11.1816C280.193 11.4941 280.235 11.8359 280.235 12.207V12.6123H276.29V11.875H279.332V11.8066C279.319 11.5723 279.27 11.3444 279.186 11.123C279.104 10.9017 278.974 10.7194 278.795 10.5762C278.616 10.4329 278.372 10.3613 278.062 10.3613C277.857 10.3613 277.669 10.4053 277.496 10.4932C277.324 10.5778 277.175 10.7048 277.052 10.874C276.928 11.0433 276.832 11.25 276.764 11.4941C276.695 11.7383 276.661 12.0199 276.661 12.3389V12.5439C276.661 12.7946 276.695 13.0306 276.764 13.252C276.835 13.4701 276.938 13.6621 277.071 13.8281C277.208 13.9941 277.372 14.1243 277.564 14.2188C277.76 14.3132 277.981 14.3604 278.229 14.3604C278.548 14.3604 278.818 14.2952 279.039 14.165C279.26 14.0348 279.454 13.8607 279.62 13.6426L280.167 14.0771C280.053 14.2497 279.908 14.4141 279.732 14.5703C279.557 14.7266 279.34 14.8535 279.083 14.9512C278.829 15.0488 278.528 15.0977 278.18 15.0977ZM281.305 14.5215C281.305 14.3685 281.352 14.2399 281.446 14.1357C281.544 14.0283 281.684 13.9746 281.866 13.9746C282.049 13.9746 282.187 14.0283 282.281 14.1357C282.379 14.2399 282.428 14.3685 282.428 14.5215C282.428 14.6712 282.379 14.7982 282.281 14.9023C282.187 15.0065 282.049 15.0586 281.866 15.0586C281.684 15.0586 281.544 15.0065 281.446 14.9023C281.352 14.7982 281.305 14.6712 281.305 14.5215Z" fill="white" fill-opacity="0.6"/>
</svg>
