<svg width="40" height="40" viewBox="0 0 40 40" fill="none" xmlns="http://www.w3.org/2000/svg">
<path d="M20.0003 4.16699C15.8011 4.16699 11.7738 5.83514 8.80447 8.80447C5.83514 11.7738 4.16699 15.8011 4.16699 20.0003C4.16699 24.1996 5.83514 28.2269 8.80447 31.1962C11.7738 34.1655 15.8011 35.8337 20.0003 35.8337C24.1996 35.8337 28.2269 34.1655 31.1962 31.1962C34.1655 28.2269 35.8337 24.1996 35.8337 20.0003C35.8337 15.8011 34.1655 11.7738 31.1962 8.80447C28.2269 5.83514 24.1996 4.16699 20.0003 4.16699Z" fill="#039BE5"/>
<path d="M22.143 24.1971H26.2405L26.8839 20.0346H22.1422V17.7596C22.1422 16.0305 22.7072 14.4971 24.3247 14.4971H26.9239V10.8646C26.4672 10.803 25.5014 10.668 23.6764 10.668C19.8655 10.668 17.6314 12.6805 17.6314 17.2655V20.0346H13.7139V24.1971H17.6314V35.638C18.4072 35.7546 19.193 35.8338 19.9997 35.8338C20.7289 35.8338 21.4405 35.7671 22.143 35.6721V24.1971Z" fill="white"/>
</svg>
