<svg width="40" height="40" viewBox="0 0 40 40" fill="none" xmlns="http://www.w3.org/2000/svg">
<path d="M28.347 34.9912L11.6804 35.007C8.01371 35.0104 5.01121 32.0137 5.00705 28.347L4.99121 11.6804C4.98788 8.01371 7.98455 5.01121 11.6512 5.00705L28.3179 4.99121C31.9845 4.98788 34.987 7.98455 34.9912 11.6512L35.007 28.3179C35.0112 31.9854 32.0137 34.9879 28.347 34.9912Z" fill="url(#paint0_radial_451_8564)"/>
<path d="M28.347 34.9912L11.6804 35.007C8.01371 35.0104 5.01121 32.0137 5.00705 28.347L4.99121 11.6804C4.98788 8.01371 7.98455 5.01121 11.6512 5.00705L28.3179 4.99121C31.9845 4.98788 34.987 7.98455 34.9912 11.6512L35.007 28.3179C35.0112 31.9854 32.0137 34.9879 28.347 34.9912Z" fill="url(#paint1_radial_451_8564)"/>
<path d="M20.0003 25.8337C16.7845 25.8337 14.167 23.217 14.167 20.0003C14.167 16.7837 16.7845 14.167 20.0003 14.167C23.2162 14.167 25.8337 16.7837 25.8337 20.0003C25.8337 23.217 23.2162 25.8337 20.0003 25.8337ZM20.0003 15.8337C17.7028 15.8337 15.8337 17.7028 15.8337 20.0003C15.8337 22.2978 17.7028 24.167 20.0003 24.167C22.2978 24.167 24.167 22.2978 24.167 20.0003C24.167 17.7028 22.2978 15.8337 20.0003 15.8337Z" fill="white"/>
<path d="M26.25 15C26.9404 15 27.5 14.4404 27.5 13.75C27.5 13.0596 26.9404 12.5 26.25 12.5C25.5596 12.5 25 13.0596 25 13.75C25 14.4404 25.5596 15 26.25 15Z" fill="white"/>
<path d="M25.0003 30.8337H15.0003C11.7845 30.8337 9.16699 28.217 9.16699 25.0003V15.0003C9.16699 11.7837 11.7845 9.16699 15.0003 9.16699H25.0003C28.2162 9.16699 30.8337 11.7837 30.8337 15.0003V25.0003C30.8337 28.217 28.2162 30.8337 25.0003 30.8337ZM15.0003 10.8337C12.7028 10.8337 10.8337 12.7028 10.8337 15.0003V25.0003C10.8337 27.2978 12.7028 29.167 15.0003 29.167H25.0003C27.2978 29.167 29.167 27.2978 29.167 25.0003V15.0003C29.167 12.7028 27.2978 10.8337 25.0003 10.8337H15.0003Z" fill="white"/>
<defs>
<radialGradient id="paint0_radial_451_8564" cx="0" cy="0" r="1" gradientUnits="userSpaceOnUse" gradientTransform="translate(16.1495 35.0287) scale(37.4158 37.4158)">
<stop stop-color="#FFDD55"/>
<stop offset="0.328" stop-color="#FF543F"/>
<stop offset="0.348" stop-color="#FC5245"/>
<stop offset="0.504" stop-color="#E64771"/>
<stop offset="0.643" stop-color="#D53E91"/>
<stop offset="0.761" stop-color="#CC39A4"/>
<stop offset="0.841" stop-color="#C837AB"/>
</radialGradient>
<radialGradient id="paint1_radial_451_8564" cx="0" cy="0" r="1" gradientUnits="userSpaceOnUse" gradientTransform="translate(9.82121 4.61647) scale(24.8442 16.5537)">
<stop stop-color="#4168C9"/>
<stop offset="0.999" stop-color="#4168C9" stop-opacity="0"/>
</radialGradient>
</defs>
</svg>
