<svg width="40" height="40" viewBox="0 0 40 40" fill="none" xmlns="http://www.w3.org/2000/svg">
<path fill-rule="evenodd" clip-rule="evenodd" d="M4.05664 36.0862L6.30164 27.8903C4.91664 25.492 4.18831 22.7703 4.18914 19.9828C4.19331 11.262 11.29 4.16699 20.0116 4.16699C24.2441 4.16866 28.2158 5.81616 31.2033 8.80533C34.19 11.7953 35.835 15.7687 35.8333 19.9953C35.83 28.7162 28.7316 35.812 20.0116 35.812H20.005C17.3575 35.8112 14.755 35.147 12.4441 33.8862L4.05664 36.0862Z" fill="white"/>
<path fill-rule="evenodd" clip-rule="evenodd" d="M4.05693 36.5025C3.94693 36.5025 3.84026 36.4592 3.76109 36.3792C3.65693 36.2733 3.61609 36.1192 3.65526 35.9767L5.85443 27.9467C4.49109 25.525 3.77193 22.775 3.77359 19.9833C3.77693 11.0317 11.0611 3.75 20.0119 3.75C24.3536 3.75167 28.4328 5.4425 31.4986 8.51083C34.5644 11.58 36.2519 15.6583 36.2503 19.995C36.2469 28.9458 28.9619 36.2283 20.0119 36.2283C17.3544 36.2275 14.7253 35.5717 12.3919 34.3308L4.16276 36.4883C4.12776 36.4983 4.09276 36.5025 4.05693 36.5025Z" fill="white"/>
<path fill-rule="evenodd" clip-rule="evenodd" d="M20.0113 4.16634C24.2438 4.16801 28.2155 5.81551 31.203 8.80467C34.1897 11.7947 35.8347 15.768 35.833 19.9947C35.8297 28.7155 28.7313 35.8113 20.0113 35.8113H20.0047C17.3572 35.8105 14.7547 35.1463 12.4438 33.8855L4.05633 36.0855L6.30133 27.8897C4.91633 25.4913 4.188 22.7697 4.18883 19.9822C4.193 11.2613 11.2897 4.16634 20.0113 4.16634ZM20.0113 3.33301C10.8313 3.33301 3.35967 10.8013 3.3555 19.9822C3.35467 22.788 4.063 25.553 5.40633 28.0005L3.25217 35.8663C3.17383 36.1538 3.25383 36.4605 3.46383 36.6722C3.62217 36.8322 3.83633 36.9197 4.05633 36.9197C4.12717 36.9197 4.198 36.9105 4.268 36.8922L12.3405 34.7755C14.6972 35.9988 17.3388 36.6447 20.0047 36.6455C29.1913 36.6455 36.663 29.1763 36.6672 19.9955C36.6688 15.5463 34.938 11.363 31.7938 8.21634C28.648 5.06884 24.4638 3.33467 20.0113 3.33301Z" fill="#CFD8DC"/>
<path fill-rule="evenodd" clip-rule="evenodd" d="M29.3137 10.6929C26.8303 8.20789 23.5295 6.83872 20.0162 6.83789C12.7629 6.83789 6.86369 12.7346 6.86035 19.9829C6.85952 22.4671 7.55452 24.8854 8.87119 26.9796L9.18452 27.4771L7.85535 32.3279L12.8329 31.0229L13.3137 31.3079C15.332 32.5062 17.647 33.1396 20.007 33.1404H20.012C27.2604 33.1404 33.1595 27.2429 33.162 19.9937C33.1628 16.4812 31.797 13.1779 29.3137 10.6929Z" fill="#40C351"/>
<path fill-rule="evenodd" clip-rule="evenodd" d="M16.0565 13.3712C15.7607 12.7129 15.449 12.6996 15.1665 12.6879C14.9357 12.6779 14.6724 12.6787 14.409 12.6787C14.1457 12.6787 13.7174 12.7779 13.3549 13.1737C12.9924 13.5696 11.9707 14.5254 11.9707 16.4704C11.9707 18.4154 13.3874 20.2954 13.5849 20.5587C13.7824 20.8221 16.3199 24.9412 20.3382 26.5262C23.6774 27.8429 24.3574 27.5812 25.0824 27.5154C25.8074 27.4496 27.4215 26.5596 27.7507 25.6362C28.0799 24.7129 28.0799 23.9221 27.9815 23.7571C27.8824 23.5921 27.619 23.4937 27.224 23.2954C26.829 23.0971 24.8849 22.1412 24.5224 22.0096C24.1599 21.8779 23.8965 21.8121 23.6324 22.2079C23.369 22.6029 22.6115 23.4937 22.3807 23.7571C22.1499 24.0212 21.919 24.0546 21.524 23.8562C21.129 23.6579 19.8557 23.2412 18.3449 21.8946C17.1699 20.8471 16.3765 19.5529 16.1457 19.1571C15.9149 18.7621 16.1207 18.5479 16.319 18.3504C16.4965 18.1729 16.714 17.8887 16.9124 17.6579C17.1099 17.4271 17.1757 17.2621 17.3074 16.9987C17.439 16.7346 17.3732 16.5037 17.274 16.3062C17.1765 16.1079 16.4082 14.1529 16.0565 13.3712Z" fill="white"/>
</svg>
