<svg width="142" height="133" viewBox="0 0 142 133" fill="none" xmlns="http://www.w3.org/2000/svg">
<rect x="0.166589" y="0.100097" width="76.6464" height="10.4393" rx="5.21965" transform="matrix(0.970412 -0.241455 0.24239 0.970179 23.6857 114.419)" fill="#C4C4C4" stroke="#8E8E8E" stroke-width="0.274718"/>
<rect x="0.166589" y="0.100097" width="76.6464" height="107.964" rx="5.35701" transform="matrix(0.970412 -0.241455 0.24239 0.970179 -0.0193334 19.5364)" fill="#F2F2F2" stroke="#D2D2D2" stroke-width="0.274718"/>
<path d="M20.1111 28.7838L19.1269 42.3762L15.8049 43.2027L17.6515 26.6423L19.7655 26.1163L20.1111 28.7838ZM26.6768 40.4976L19.403 28.96L18.4221 26.4506L20.5569 25.9194L30.0092 39.6685L26.6768 40.4976ZM25.0795 34.9014L25.6908 37.348L17.6827 39.3406L17.0714 36.894L25.0795 34.9014Z" fill="#F24822"/>
<path fill-rule="evenodd" clip-rule="evenodd" d="M19.7316 58.4903L29.214 65.1033L35.5223 55.4288L26.0399 48.8159L19.7316 58.4903Z" fill="#F24822"/>
<rect x="32.3444" y="107.636" width="76.6464" height="10.4393" rx="5.21965" fill="#C4C4C4" stroke="#8E8E8E" stroke-width="0.274718"/>
<rect x="32.3444" y="9.83658" width="76.6464" height="107.964" rx="5.35701" fill="#F2F2F2" stroke="#D2D2D2" stroke-width="0.274718"/>
<path d="M49.4671 23.5709L45.2175 36.5234H41.7943L47.5998 20.8988H49.7783L49.4671 23.5709ZM52.9976 36.5234L48.7373 23.5709L48.3939 20.8988H50.5938L56.4316 36.5234H52.9976ZM52.8045 30.7071V33.229H44.5522V30.7071H52.8045Z" fill="#F24822"/>
<path fill-rule="evenodd" clip-rule="evenodd" d="M41.8958 52.3074L49.4926 61.0143L57.9578 53.1492L50.3611 44.4424L41.8958 52.3074Z" fill="#F24822"/>
<rect x="0.100001" y="0.166429" width="76.6464" height="10.4393" rx="5.21965" transform="matrix(0.970412 0.241455 -0.24239 0.970179 43.0179 103.296)" fill="#C4C4C4" stroke="#8E8E8E" stroke-width="0.274718"/>
<rect x="0.100001" y="0.166429" width="76.6464" height="107.964" rx="5.35701" transform="matrix(0.970412 0.241455 -0.24239 0.970179 66.723 8.41343)" fill="#F2F2F2" stroke="#D2D2D2" stroke-width="0.274718"/>
<path d="M80.0672 26.0583L72.8039 37.5985L69.4819 36.772L78.9029 23.0151L81.0169 23.5411L80.0672 26.0583ZM80.3538 39.4771L79.3591 25.8821L79.6736 23.2068L81.8084 23.738L83.6862 40.3062L80.3538 39.4771ZM81.5761 33.7876L80.9649 36.2342L72.9568 34.2416L73.568 31.795L81.5761 33.7876Z" fill="#F24822"/>
<path fill-rule="evenodd" clip-rule="evenodd" d="M65.7557 52.1088L71.0172 62.3903L81.1384 56.8037L75.8769 46.5223L65.7557 52.1088Z" fill="#F24822"/>
</svg>
