<svg width="30" height="30" viewBox="0 0 30 30" fill="none" xmlns="http://www.w3.org/2000/svg">
<circle cx="15" cy="15" r="15" fill="url(#paint0_linear_451_6398)"/>
<path d="M21.75 14.625C21.7526 15.6149 21.5213 16.5914 21.075 17.475C20.5458 18.5338 19.7323 19.4244 18.7256 20.047C17.7189 20.6696 16.5587 20.9996 15.375 21C14.3851 21.0026 13.4086 20.7713 12.525 20.325L8.25 21.75L9.675 17.475C9.2287 16.5914 8.99742 15.6149 9 14.625C9.00046 13.4413 9.33046 12.2812 9.95304 11.2744C10.5756 10.2677 11.4662 9.4542 12.525 8.92502C13.4086 8.47872 14.3851 8.24744 15.375 8.25002H15.75C17.3133 8.33627 18.7898 8.99609 19.8969 10.1032C21.0039 11.2102 21.6638 12.6868 21.75 14.25V14.625Z" fill="white"/>
<defs>
<linearGradient id="paint0_linear_451_6398" x1="4.10156" y1="-1.15135e-06" x2="23.6793" y2="7.57848" gradientUnits="userSpaceOnUse">
<stop stop-color="#AD0B40" stop-opacity="0.878431"/>
<stop offset="1" stop-color="#FF1917"/>
</linearGradient>
</defs>
</svg>
